<svg width="1440" height="900" viewBox="0 0 1440 900" fill="none" xmlns="http://www.w3.org/2000/svg">
<rect width="1440" height="900" fill="url(#paint0_linear_4265_133)"/>
<g clip-path="url(#clip0_4265_133)">
<path fill-rule="evenodd" clip-rule="evenodd" d="M743.08 818.718C744.787 818.718 746.287 819.584 747.196 820.884V814.867C745.952 814.321 744.548 814 743.08 814C737.591 814 733.14 818.317 733.14 823.644C733.14 828.972 737.591 833.289 743.08 833.289C744.548 833.289 745.936 832.984 747.196 832.422V828.894C748.208 831.553 751.028 833.465 754.343 833.465C757.979 833.465 761.018 831.166 761.732 828.105V832.936H766.231V825.602C766.231 824.511 767.109 823.644 768.177 823.644C769.262 823.644 770.124 824.527 770.124 825.602V832.936H774.623V825.602C774.623 825.008 774.895 824.463 775.31 824.11C775.645 823.821 776.075 823.644 776.554 823.644C777.639 823.644 778.501 824.527 778.501 825.602V832.92H783V824.639C783 822.617 781.66 820.884 779.825 820.323C779.394 820.194 778.932 820.114 778.453 820.114C776.825 820.114 775.405 820.981 774.607 822.264C774.592 822.296 774.576 822.325 774.56 822.353C774.544 822.381 774.528 822.409 774.512 822.441C773.778 821.414 772.709 820.644 771.464 820.323C771.034 820.21 770.587 820.146 770.124 820.146C768.592 820.146 767.204 820.788 766.231 821.831V820.307H761.732V825.323C761.019 822.273 757.983 819.986 754.343 819.986C750.179 819.986 746.797 823.002 746.797 826.725C746.797 826.845 746.8 826.963 746.807 827.081C745.895 828.108 744.559 828.747 743.08 828.747C740.319 828.747 738.086 826.501 738.086 823.725C738.086 820.948 740.319 818.718 743.08 818.718ZM704.739 814.433H721.396L711.871 828.908H720.375V832.904H703L712.605 818.333H704.707L704.739 814.433ZM725.145 816.519C720.981 816.519 717.599 819.536 717.599 823.259C717.599 826.982 720.981 829.999 725.145 829.999C729.31 829.999 732.692 826.982 732.692 823.259C732.692 819.536 729.326 816.519 725.145 816.519ZM725.145 826.228C723.518 826.228 722.194 824.896 722.194 823.259C722.194 821.622 723.518 820.306 725.145 820.306C726.773 820.306 728.097 821.638 728.097 823.275C728.097 824.912 726.773 826.228 725.145 826.228ZM751.392 826.709C751.392 828.346 752.716 829.678 754.343 829.678C755.971 829.678 757.295 828.346 757.295 826.709C757.295 825.073 755.971 823.741 754.343 823.741C752.716 823.741 751.392 825.073 751.392 826.709Z" fill="white"/>
</g>
<defs>
<linearGradient id="paint0_linear_4265_133" x1="1.87147e-06" y1="494.5" x2="1440" y2="494.5" gradientUnits="userSpaceOnUse">
<stop stop-color="#0C164D"/>
<stop offset="1" stop-color="#190B22"/>
</linearGradient>
<clipPath id="clip0_4265_133">
<rect width="80" height="19.6875" fill="white" transform="translate(703 814)"/>
</clipPath>
</defs>
</svg>
