<svg width="1440" height="900" viewBox="0 0 1440 900" fill="none" xmlns="http://www.w3.org/2000/svg">
<rect width="1440" height="900" fill="url(#paint0_linear_4265_48)"/>
<g filter="url(#filter0_f_4265_48)">
<circle opacity="0.3" cx="1283" cy="101" r="3" fill="white"/>
<circle opacity="0.3" cx="1026" cy="514" r="3" fill="white"/>
<circle opacity="0.3" cx="1322" cy="605" r="3" fill="white"/>
<circle opacity="0.3" cx="1231" cy="551" r="3" fill="white"/>
<circle opacity="0.3" cx="1387" cy="836" r="3" fill="white"/>
<circle opacity="0.3" cx="1205" cy="699" r="3" fill="white"/>
<circle opacity="0.3" cx="635" cy="814" r="3" fill="white"/>
<circle opacity="0.3" cx="1328" cy="388" r="3" fill="white"/>
<circle opacity="0.3" cx="1137" cy="767" r="3" fill="white"/>
<circle opacity="0.3" cx="1161" cy="388" r="3" fill="white"/>
<circle opacity="0.3" cx="970" cy="767" r="3" fill="white"/>
<circle opacity="0.3" cx="1181" cy="130" r="3" fill="white"/>
<circle opacity="0.3" cx="914" cy="646" r="3" fill="white"/>
<circle opacity="0.3" cx="1207" cy="240" r="3" fill="white"/>
<circle opacity="0.3" cx="1067" cy="674" r="3" fill="white"/>
<circle opacity="0.3" cx="1.5" cy="1.5" r="1.5" transform="matrix(-1.19249e-08 1 1 1.19249e-08 738 436)" fill="white"/>
<circle opacity="0.3" cx="1.5" cy="1.5" r="1.5" transform="matrix(-1.19249e-08 1 1 1.19249e-08 453 255)" fill="white"/>
<circle opacity="0.3" cx="2.90227" cy="2.90227" r="2.90227" transform="matrix(0.376454 0.926435 0.926435 -0.376454 255.399 791.215)" fill="white"/>
<circle opacity="0.3" cx="1.5" cy="1.5" r="1.5" transform="matrix(-1.19249e-08 1 1 1.19249e-08 974 271)" fill="white"/>
<circle opacity="0.3" cx="1.5" cy="1.5" r="1.5" transform="matrix(-1.19249e-08 1 1 1.19249e-08 410 678)" fill="white"/>
<circle opacity="0.3" cx="2.90227" cy="2.90227" r="2.90227" transform="matrix(0.376454 0.926435 0.926435 -0.376454 523.196 483.99)" fill="white"/>
<ellipse opacity="0.3" cx="1.5" cy="1" rx="1.5" ry="1" transform="matrix(-1.19249e-08 1 1 1.19249e-08 1051 401)" fill="white"/>
<ellipse opacity="0.3" cx="1.5" cy="1" rx="1.5" ry="1" transform="matrix(-1.19249e-08 1 1 1.19249e-08 487 808)" fill="white"/>
<ellipse opacity="0.3" cx="2.90227" cy="1.93485" rx="2.90227" ry="1.93485" transform="matrix(0.376454 0.926435 0.926435 -0.376454 755.908 660.932)" fill="white"/>
<circle opacity="0.3" cx="1.5" cy="1.5" r="1.5" transform="matrix(-1.19249e-08 1 1 1.19249e-08 1079 306)" fill="white"/>
<circle opacity="0.3" cx="1.5" cy="1.5" r="1.5" transform="matrix(-1.19249e-08 1 1 1.19249e-08 423 391)" fill="white"/>
<circle opacity="0.3" cx="2.90227" cy="2.90227" r="2.90227" transform="matrix(0.376454 0.926435 0.926435 -0.376454 657 503.185)" fill="white"/>
<circle opacity="0.3" cx="1.5" cy="1.5" r="1.5" transform="matrix(-1.19249e-08 1 1 1.19249e-08 929 388)" fill="white"/>
<circle opacity="0.3" cx="1.5" cy="1.5" r="1.5" transform="matrix(-1.19249e-08 1 1 1.19249e-08 365 795)" fill="white"/>
<circle opacity="0.3" cx="2.90227" cy="2.90227" r="2.90227" transform="matrix(0.376454 0.926435 0.926435 -0.376454 527.753 726.491)" fill="white"/>
<circle opacity="0.3" cx="1.5" cy="1.5" r="1.5" transform="matrix(-1.19249e-08 1 1 1.19249e-08 1252 448)" fill="white"/>
<circle opacity="0.3" cx="1.5" cy="1.5" r="1.5" transform="matrix(-1.19249e-08 1 1 1.19249e-08 688 855)" fill="white"/>
<circle opacity="0.3" cx="2.90227" cy="2.90227" r="2.90227" transform="matrix(0.376454 0.926435 0.926435 -0.376454 1150.44 598.775)" fill="white"/>
<circle opacity="0.3" cx="1.5" cy="1.5" r="1.5" transform="matrix(-1.19249e-08 1 1 1.19249e-08 929 305)" fill="white"/>
<circle opacity="0.3" cx="1.5" cy="1.5" r="1.5" transform="matrix(-1.19249e-08 1 1 1.19249e-08 339 509)" fill="white"/>
<circle opacity="0.3" cx="2.90227" cy="2.90227" r="2.90227" transform="matrix(0.376454 0.926435 0.926435 -0.376454 467.297 577.713)" fill="white"/>
<circle opacity="0.3" cx="1.5" cy="1.5" r="1.5" transform="matrix(-1.19249e-08 1 1 1.19249e-08 1117 210)" fill="white"/>
<circle opacity="0.3" cx="1.5" cy="1.5" r="1.5" transform="matrix(-1.19249e-08 1 1 1.19249e-08 579 625)" fill="white"/>
<circle opacity="0.3" cx="2.90227" cy="2.90227" r="2.90227" transform="matrix(0.376454 0.926435 0.926435 -0.376454 735.094 270.489)" fill="white"/>
<circle opacity="0.3" cx="1.5" cy="1.5" r="1.5" transform="matrix(-1.19249e-08 1 1 1.19249e-08 839 302)" fill="white"/>
<circle opacity="0.3" cx="1.5" cy="1.5" r="1.5" transform="matrix(-1.19249e-08 1 1 1.19249e-08 275 709)" fill="white"/>
<circle opacity="0.3" cx="2.90227" cy="2.90227" r="2.90227" transform="matrix(0.376454 0.926435 0.926435 -0.376454 277 286.185)" fill="white"/>
<circle opacity="0.3" cx="1.5" cy="1.5" r="1.5" transform="matrix(-1.19249e-08 1 1 1.19249e-08 1027 207)" fill="white"/>
<circle opacity="0.3" cx="1.5" cy="1.5" r="1.5" transform="matrix(-1.19249e-08 1 1 1.19249e-08 453 433)" fill="white"/>
<circle opacity="0.3" cx="2.90227" cy="2.90227" r="2.90227" transform="matrix(0.376454 0.926435 0.926435 -0.376454 571.582 330.666)" fill="white"/>
<circle opacity="0.3" cx="1.5" cy="1.5" r="1.5" transform="matrix(-1.19249e-08 1 1 1.19249e-08 882 353)" fill="white"/>
<circle opacity="0.3" cx="1.5" cy="1.5" r="1.5" transform="matrix(-1.19249e-08 1 1 1.19249e-08 263 474)" fill="white"/>
<circle opacity="0.3" cx="2.90227" cy="2.90227" r="2.90227" transform="matrix(0.376454 0.926435 0.926435 -0.376454 418.012 697.987)" fill="white"/>
<circle opacity="0.3" cx="1.5" cy="1.5" r="1.5" transform="matrix(-1.19249e-08 1 1 1.19249e-08 1297 204)" fill="white"/>
<circle opacity="0.3" cx="1.5" cy="1.5" r="1.5" transform="matrix(-1.19249e-08 1 1 1.19249e-08 811 512)" fill="white"/>
<circle opacity="0.3" cx="2.90227" cy="2.90227" r="2.90227" transform="matrix(0.376454 0.926435 0.926435 -0.376454 1053.38 128.625)" fill="white"/>
</g>
<g clip-path="url(#clip0_4265_48)">
<path fill-rule="evenodd" clip-rule="evenodd" d="M720.08 815.718C721.787 815.718 723.287 816.584 724.196 817.884V811.867C722.952 811.321 721.548 811 720.08 811C714.591 811 710.14 815.317 710.14 820.644C710.14 825.972 714.591 830.289 720.08 830.289C721.548 830.289 722.936 829.984 724.196 829.422V825.894C725.208 828.553 728.028 830.465 731.343 830.465C734.979 830.465 738.018 828.166 738.732 825.105V829.936H743.231V822.602C743.231 821.511 744.109 820.644 745.177 820.644C746.262 820.644 747.124 821.527 747.124 822.602V829.936H751.623V822.602C751.623 822.008 751.895 821.463 752.31 821.11C752.645 820.821 753.075 820.644 753.554 820.644C754.639 820.644 755.501 821.527 755.501 822.602V829.92H760V821.639C760 819.617 758.66 817.884 756.825 817.323C756.394 817.194 755.932 817.114 755.453 817.114C753.825 817.114 752.405 817.981 751.607 819.264C751.592 819.296 751.576 819.325 751.56 819.353C751.544 819.381 751.528 819.409 751.512 819.441C750.778 818.414 749.709 817.644 748.464 817.323C748.034 817.21 747.587 817.146 747.124 817.146C745.592 817.146 744.204 817.788 743.231 818.831V817.307H738.732V822.323C738.019 819.273 734.983 816.986 731.343 816.986C727.179 816.986 723.797 820.002 723.797 823.725C723.797 823.845 723.8 823.963 723.807 824.081C722.895 825.108 721.559 825.747 720.08 825.747C717.319 825.747 715.086 823.501 715.086 820.725C715.086 817.948 717.319 815.718 720.08 815.718ZM681.739 811.433H698.396L688.871 825.908H697.375V829.904H680L689.605 815.333H681.707L681.739 811.433ZM702.145 813.519C697.981 813.519 694.599 816.536 694.599 820.259C694.599 823.982 697.981 826.999 702.145 826.999C706.31 826.999 709.692 823.982 709.692 820.259C709.692 816.536 706.326 813.519 702.145 813.519ZM702.145 823.228C700.518 823.228 699.194 821.896 699.194 820.259C699.194 818.622 700.518 817.306 702.145 817.306C703.773 817.306 705.097 818.638 705.097 820.275C705.097 821.912 703.773 823.228 702.145 823.228ZM728.392 823.709C728.392 825.346 729.716 826.678 731.343 826.678C732.971 826.678 734.295 825.346 734.295 823.709C734.295 822.073 732.971 820.741 731.343 820.741C729.716 820.741 728.392 822.073 728.392 823.709Z" fill="white"/>
</g>
<defs>
<filter id="filter0_f_4265_48" x="252.278" y="94" width="1141.72" height="768" filterUnits="userSpaceOnUse" color-interpolation-filters="sRGB">
<feFlood flood-opacity="0" result="BackgroundImageFix"/>
<feBlend mode="normal" in="SourceGraphic" in2="BackgroundImageFix" result="shape"/>
<feGaussianBlur stdDeviation="2" result="effect1_foregroundBlur_4265_48"/>
</filter>
<linearGradient id="paint0_linear_4265_48" x1="0" y1="368.5" x2="1440" y2="368.5" gradientUnits="userSpaceOnUse">
<stop stop-color="#0C164D"/>
<stop offset="1" stop-color="#190B22"/>
</linearGradient>
<clipPath id="clip0_4265_48">
<rect width="80" height="19.6875" fill="white" transform="translate(680 811)"/>
</clipPath>
</defs>
</svg>
